HIERARCHY
ROOT root
{
	OFFSET 0.000000 0.000000 0.000000
	CHANNELS 6 Xposition Yposition Zposition Zrotation Yrotation Xrotation
	JOINT lhip
	{
		OFFSET 0.058581 -0.082280 -0.017664
		CHANNELS 3 Zrotation Yrotation Xrotation
		JOINT lknee
		{
			OFFSET 0.043451 -0.386469 0.008037
			CHANNELS 3 Zrotation Yrotation Xrotation
			JOINT lankle
			{
				OFFSET -0.014790 -0.426874 -0.037428
				CHANNELS 3 Zrotation Yrotation Xrotation
				JOINT ltoe
				{
					OFFSET 0.041054 -0.060286 0.122042
					CHANNELS 3 Zrotation Yrotation Xrotation
					End Site
					{
						OFFSET 0.000000 0.000000 0.000000
					}
				}
			}
		}
	}
	JOINT rhip
	{
		OFFSET -0.060310 -0.090513 -0.013543
		CHANNELS 3 Zrotation Yrotation Xrotation
		JOINT rknee
		{
			OFFSET -0.043257 -0.383688 -0.004843
			CHANNELS 3 Zrotation Yrotation Xrotation
			JOINT rankle
			{
				OFFSET 0.019056 -0.420046 -0.034562
				CHANNELS 3 Zrotation Yrotation Xrotation
				JOINT rtoe
				{
					OFFSET -0.034840 -0.062106 0.130323
					CHANNELS 3 Zrotation Yrotation Xrotation
					End Site
					{
						OFFSET 0.000000 0.000000 0.000000
					}
				}
			}
		}
	}
	JOINT lowerback
	{
		OFFSET 0.004439 0.124404 -0.038385
		CHANNELS 3 Zrotation Yrotation Xrotation
		JOINT upperback
		{
			OFFSET 0.004488 0.137956 0.026820
			CHANNELS 3 Zrotation Yrotation Xrotation
			JOINT chest
			{
				OFFSET -0.002265 0.056032 0.002855
				CHANNELS 3 Zrotation Yrotation Xrotation
				JOINT lowerneck
				{
					OFFSET -0.013390 0.211636 -0.033468
					CHANNELS 3 Zrotation Yrotation Xrotation
					JOINT upperneck
					{
						OFFSET 0.010113 0.088937 0.050410
						CHANNELS 3 Zrotation Yrotation Xrotation
						End Site
						{
							OFFSET 0.000000 0.000000 0.000000
						}
					}
				}
				JOINT lclavicle
				{
					OFFSET 0.071702 0.114000 -0.018898
					CHANNELS 3 Zrotation Yrotation Xrotation
					JOINT lshoulder
					{
						OFFSET 0.122921 0.045205 -0.019046
						CHANNELS 3 Zrotation Yrotation Xrotation
						JOINT lelbow
						{
							OFFSET 0.255332 -0.015649 -0.022946
							CHANNELS 3 Zrotation Yrotation Xrotation
							JOINT lwrist
							{
								OFFSET 0.265709 0.012698 -0.007375
								CHANNELS 3 Zrotation Yrotation Xrotation
								End Site
								{
									OFFSET 0.000000 0.000000 0.000000
								}
							}
						}
					}
				}
				JOINT rclavicle
				{
					OFFSET -0.082954 0.112472 -0.023707
					CHANNELS 3 Zrotation Yrotation Xrotation
					JOINT rshoulder
					{
						OFFSET -0.113228 0.046853 -0.008472
						CHANNELS 3 Zrotation Yrotation Xrotation
						JOINT relbow
						{
							OFFSET -0.260127 -0.014369 -0.031269
							CHANNELS 3 Zrotation Yrotation Xrotation
							JOINT rwrist
							{
								OFFSET -0.269108 0.006794 -0.006027
								CHANNELS 3 Zrotation Yrotation Xrotation
								End Site
								{
									OFFSET 0.000000 0.000000 0.000000
								}
							}
						}
					}
				}
			}
		}
	}
}
MOTION
Frames: 8
Frame Time: 0.033333
2.077012 0.787909 0.816584 134.439585 -3.113698 91.829086 16.217933 -8.993592 -2.918111 -23.186935 -34.238368 64.829621 -7.502082 -1.865522 -21.885574 0.000000 -0.000000 0.000000 -11.386023 -3.280349 -56.845496 -0.916198 -13.993754 72.994197 -0.066607 -9.227935 -20.817554 0.000000 -0.000000 0.000000 0.394377 -4.105557 47.490685 -3.405992 6.282326 -3.174850 -0.315803 0.744099 -1.097993 -13.217561 31.176762 -12.298978 -9.819116 20.155883 1.515531 -25.610329 -0.947510 0.357617 -49.774353 1.992848 -4.346719 41.912568 -46.632949 -26.697644 31.292202 -8.753523 -7.835901 27.020033 10.129538 2.791428 38.397275 12.387228 -3.823874 -63.224381 47.883720 -44.888434 -22.249932 14.525272 11.249047 
2.077392 0.786998 0.818250 134.682143 -3.197969 92.071638 16.387295 -9.004813 -3.192304 -23.061482 -34.100684 64.408977 -7.113167 -1.675144 -21.703972 0.000000 -0.000000 0.000000 -11.416868 -3.046297 -56.931531 -0.837648 -13.823097 72.680647 -0.124434 -9.856865 -20.517395 0.000000 -0.000000 0.000000 0.204261 -4.120025 47.255644 -3.520410 6.237522 -3.369673 -0.403339 0.891256 -0.753124 -13.064544 30.618487 -12.213204 -9.450171 20.070341 1.289391 -25.318407 -0.915594 0.297264 -49.546283 2.236233 -4.145811 41.588343 -47.124760 -26.826544 32.162398 -8.313108 -7.360400 26.960873 10.382837 2.959681 38.634915 12.350420 -3.690420 -63.311632 47.679519 -45.262402 -22.067343 14.332341 11.673931 
2.078254 0.786708 0.819576 134.887037 -3.224017 91.975794 16.459050 -8.521988 -2.915172 -22.824868 -34.760103 63.968483 -7.658705 -1.797277 -21.471501 0.000000 -0.000000 0.000000 -11.419666 -3.011272 -56.679363 -0.986990 -13.850679 72.677775 0.141359 -9.784956 -20.577768 0.000000 -0.000000 0.000000 0.094362 -3.984239 47.344401 -3.553636 6.327495 -3.030346 -0.393117 0.897057 -0.903360 -12.948450 30.767111 -12.393897 -9.642620 19.717056 1.452415 -25.451795 -1.056353 0.168953 -49.378807 2.442778 -4.127555 41.468112 -47.094663 -26.053495 32.217104 -8.057127 -6.621812 27.214792 10.468333 2.969623 38.271458 12.271596 -3.731886 -62.956150 47.758660 -44.848028 -22.503275 14.255356 11.159871 
2.078866 0.786413 0.820078 135.197603 -3.136275 92.037981 16.711086 -8.873816 -3.027299 -22.820624 -34.933732 63.636396 -8.031518 -2.059707 -21.292697 0.000000 -0.000000 0.000000 -11.558253 -3.066636 -56.617115 -1.150591 -14.180493 72.926614 0.553759 -9.190501 -20.911845 0.000000 -0.000000 0.000000 0.273066 -3.941584 47.445684 -3.478766 6.356310 -3.213420 -0.375918 0.974764 -0.806410 -12.999740 30.989007 -11.952004 -9.808491 19.241304 0.973134 -25.002578 -0.603674 0.074557 -50.627042 1.529944 -4.454447 41.476768 -46.038005 -25.177699 30.149789 -8.534577 -7.278806 26.893556 10.073944 3.014123 38.435557 12.660294 -4.017507 -62.516028 47.967494 -43.893250 -22.349712 14.256124 10.893008 
2.080380 0.786065 0.820584 135.148505 -3.098360 92.203624 16.913043 -8.683774 -3.005291 -23.189545 -35.467093 63.558445 -7.892052 -2.001978 -21.004373 0.000000 -0.000000 0.000000 -11.280241 -3.263308 -56.566685 -1.028073 -14.199523 72.719630 0.077675 -9.220434 -21.111415 0.000000 -0.000000 0.000000 0.118596 -3.751233 47.541965 -3.468757 6.446626 -3.433461 -0.262452 1.062930 -0.581581 -12.855680 30.954081 -12.665448 -10.134256 19.072460 1.639256 -25.255469 -0.455349 -0.098015 -50.423739 1.912514 -4.175340 41.318089 -46.382602 -24.828160 31.100360 -8.171819 -7.158304 26.937771 10.176425 2.840828 38.214993 12.583508 -3.915332 -62.684719 48.244726 -43.886176 -22.213049 14.099908 10.758813 
2.083481 0.784807 0.821377 135.093339 -3.237666 92.401322 16.994980 -8.707388 -2.983684 -23.115746 -35.607233 63.182939 -7.895371 -1.924024 -20.556297 0.000000 -0.000000 0.000000 -11.194882 -3.363650 -56.564994 -0.940000 -14.353760 72.075740 -0.478020 -9.660713 -20.776973 0.000000 -0.000000 0.000000 0.073859 -3.552150 47.480190 -3.696834 6.579505 -3.301169 -0.386170 1.016603 -0.671007 -12.827643 30.522203 -13.141940 -9.882035 19.060486 2.065320 -25.342613 -0.491595 -0.059586 -50.261732 2.015169 -4.318845 41.389142 -46.080810 -25.261176 31.008094 -8.560050 -6.919120 27.152762 10.342771 2.917661 38.207596 12.596731 -3.883657 -62.807186 48.198325 -44.047032 -22.149001 14.354436 11.099598 
2.088328 0.782461 0.822530 135.186810 -3.530814 92.657883 17.066971 -9.122014 -2.845374 -23.013717 -35.543575 62.246480 -7.883842 -1.292806 -20.001770 0.000000 -0.000000 0.000000 -11.167629 -3.249940 -56.566620 -0.561516 -14.425171 72.210852 -0.519451 -10.081605 -21.327820 0.000000 -0.000000 0.000000 -0.255589 -3.115788 47.466087 -3.818324 6.677264 -3.178270 -0.448240 0.931303 -0.932610 -12.856878 30.614004 -12.809650 -9.721420 18.315267 1.288331 -25.384857 -0.273472 -0.105847 -49.739570 2.044421 -4.065470 40.997527 -46.151957 -24.825937 30.887204 -7.964688 -7.579586 27.611539 10.434254 2.835282 37.822665 12.366639 -3.563191 -62.531845 48.379207 -43.131236 -22.431170 13.853456 10.029700 
2.093900 0.779511 0.823517 135.732809 -3.842858 92.917273 17.054930 -9.290296 -3.098486 -22.648542 -35.932960 61.563728 -7.487234 -1.004038 -18.768222 0.000000 -0.000000 0.000000 -11.017441 -3.462965 -56.725426 -1.127981 -14.647942 72.177850 -1.490749 -10.545078 -21.545167 0.000000 -0.000000 0.000000 -0.346270 -3.079573 47.596327 -4.089549 6.545532 -3.228833 -0.529981 0.907249 -1.046484 -13.340097 30.439256 -12.768494 -9.130049 18.220669 0.443665 -25.022493 -0.582864 0.079663 -49.835127 2.134993 -4.498890 41.045888 -46.040621 -25.062877 30.620736 -7.854226 -7.267846 27.536459 10.742506 3.196455 38.224149 12.305965 -3.843374 -62.793960 48.639626 -43.276782 -21.970529 13.764121 10.244621 
